<?xml version="1.0" encoding="UTF-8" standalone="no"?>
<svg xmlns:rdf="http://www.w3.org/1999/02/22-rdf-syntax-ns#" xmlns="http://www.w3.org/2000/svg" height="603.75" viewBox="0 0 616.875 603.75" width="616.88" version="1.1" xmlns:cc="http://creativecommons.org/ns#" xmlns:dc="http://purl.org/dc/elements/1.1/">
<path d="m337.97 602.66c-9.6846-1.6996-23.073-4.4556-28.594-5.8861-3.3516-0.86844-7.2053-1.727-8.564-1.908-27.11-3.61-72.74-34.62-94.56-64.26-11.76-15.97-17.07-21.54-26.82-28.11-4.2498-2.8649-23.076-21.432-25.393-25.044-4.7847-7.458-11.203-14.964-21.474-25.113-6.6001-6.5213-13.66-14.599-16.796-19.219-14.26-20.99-15.67-22.24-30.345-26.82-19.886-6.22-47.859-33.34-58.528-56.75-7.373-16.18-10.853-29.56-11.844-45.52-0.671-10.82-0.918-11.86-4.541-19.22-6.3853-12.96-8.4272-21.96-10.17-44.81-1.5446-20.24 11.207-45.24 26.069-51.1 3.7789-1.4904 8.5582-3.8291 10.621-5.197 3.7137-2.4631 11.696-5.3466 20.491-7.4017 5.048-1.1796 16.381-6.6169 20.771-9.9658 8.3946-6.4029 23.146-11.785 39.663-14.471 7.614-1.2383 9.0273-2.6314 5.9792-5.894-1.9576-2.0954-11.414-22.975-13.877-30.64-1.5724-4.8934-5.8034-33.723-6.0561-41.266-0.32694-9.7606-0.063-10.925 3.4202-15.095 1.8482-2.2121 4.5503-6.3653 6.0048-9.2293 3.4609-6.815 14.333-14.873 28.548-21.16 2.9135-1.2885 8.9696-5.0189 13.458-8.2899 4.4884-3.2709 10.27-7.1264 12.848-8.5678 2.5781-1.4413 7.2188-4.2266 10.312-6.1895 17.766-11.272 44.06-5.3666 68.805 15.453 12.462 10.485 22.937 13.959 36.037 11.95 67.982-10.426 77.339-8.4558 99.582 20.971 7.6536 10.126 10.604 11.681 24.144 12.728 5.7722 0.44624 11.76 1.033 13.307 1.3039 1.5469 0.27088 8.0496 0.09413 14.451-0.39278 23.453-1.784 40.404 4.3622 60.441 21.915 5.0478 4.4218 9.715 8.0397 10.371 8.0397 0.65652 0 2.8346 1.1137 4.8401 2.4748 2.0055 1.3612 8.2871 4.3551 13.959 6.6533s16.008 6.5008 22.969 9.3392c6.9609 2.8384 14.133 5.5811 15.938 6.0948 8.2553 2.35 16.71 11.944 22.907 25.991 2.73 6.1887 3.0529 8.7133 4.8291 37.754 0.55536 9.0804 0.56097 9.0971 5.8269 17.344 5.0234 7.8668 5.3027 8.629 5.9459 16.223 0.39384 4.6505 1.7144 10.897 3.1712 15 13.62 38.362 14.178 59.366 1.9038 71.7-4.0855 4.1056-6.4275 7.3754-7.5147 10.491-2.1533 6.1718-9.5349 21.603-12.256 25.621-1.2222 1.8047-4.2467 6.7462-6.7211 10.981-2.4744 4.2349-7.7437 13.094-11.71 19.688-8.8236 14.669-12.008 23.022-12.008 31.496 0 3.3861-0.61161 8.8194-1.3591 12.074-0.74752 3.2547-2.0039 11.402-2.792 18.105-0.7881 6.7031-2.272 15.352-3.2976 19.219-1.0256 3.8672-2.3426 10.195-2.9267 14.062-0.58408 3.8672-2.0196 9.3516-3.1902 12.188-1.1705 2.8359-3.2545 8.583-4.6311 12.771-1.5606 4.7482-4.1654 9.9329-6.9188 13.772-2.4287 3.3861-6.7362 9.4164-9.5721 13.401-2.8359 3.9844-7.5091 10.232-10.385 13.885-2.8758 3.6522-6.6193 8.7498-8.3189 11.328-2.9227 4.4333-20.271 22.031-21.719 22.031-0.37205 0-2.9253 2.0399-5.6739 4.5332-7.924 7.1879-38.969 23.763-48.805 26.058-17.738 4.1381-76.412 7.3128-90.255 4.8836zm47.344-10.151c37.797-2.7602 49.818-6.1807 74.851-21.3 24.508-14.802 50.502-46.326 29.321-35.557-17.957 9.1291-39.415 12.178-52.609 7.4739-12.612-4.4961-12.234-5.4512 2.1883-5.5241 13.832-0.0698 31.078-5.2258 50.742-15.17 13.487-6.8203 27.416-20.294 29.631-28.664 0.57157-2.1593 2.0142-4.9807 3.2059-6.2698 8.5538-9.2527 18.729-40.577 23.449-72.188 0.34645-2.3203 1.251-6.3281 2.0102-8.9062 0.75915-2.5781 1.5435-8.2734 1.743-12.656 0.57183-12.562 1.4161-16.765 4.3048-21.43 1.4819-2.3933 4.1184-8.399 5.8588-13.346 6.8292-19.412 20.346-41.363 32.454-52.705 11.879-11.128 14.238-24.174 8.082-44.707-3.2211-10.744-6.1561-15.089-6.1746-9.1406-0.0249 8.023-6.5249 25.98-14.477 39.994-2.3219 4.092-7.5355 13.906-11.586 21.809-4.0502 7.9028-9.2765 17.533-11.614 21.4-2.3375 3.8672-6.5187 11.194-9.2914 16.281-14.483 26.573-39.206 39.794-58.963 31.532-3.8672-1.6173-9.3454-3.7671-12.174-4.7774-10.802-3.8586-16.802-11.03-18.75-22.411-2.4291-14.196-3.5443-14.829-11.464-6.5056-9.4529 9.934-23.903 15.351-41.05 15.388l-10.781 0.0235-9.008-4.801c-4.9544-2.6406-12.158-7.3866-16.009-10.547-5.3209-4.3672-7.717-5.7459-9.9856-5.7459-3.8917 0-5.3777-1.839-10.061-12.452-4.5937-10.409-6.1188-11.167-10.738-5.3341-6.5169 8.2283-17.564 11.265-36.083 9.9184-35.654-2.5926-55.893-15.477-59.535-37.901-1.4699-9.0499-2.3532-9.1613-10.017-1.2627-13.211 13.616-38.472 16.746-55.594 6.8888-12.876-7.4127-16.964-10.585-20.236-15.7-4.0241-6.2907-5.457-5.8-6.3525 2.1753-2.0483 18.243-8.8685 30.635-26.458 48.071-16.652 16.507-23.038 16.988-10.087 0.76022 9.5124-11.919 13.232-21.251 18.605-46.669 0.71506-3.3831 1.5836-7.3113 1.9301-8.7292 0.88549-3.6239-0.44031-3.2717-6.6134 1.7569-14.515 11.824-35.114 18.412-35.917 11.488-0.31458-2.7127-0.52401-2.5802 9.6265-6.0902 14.33-4.9552 31.806-18.241 40.548-30.826 1.2672-1.8243 3.6658-3.4139 6.8266-4.5242 7.1248-2.5026 18.341-14.309 23.687-24.932l3.972-7.8936 0.31687-14.285c0.9383-42.301-12.03-52.253-59.228-45.455-12.786 1.8418-19.779 4.6166-29.682 11.779-7.764 5.615-19.781 11.06-34.219 15.504-22.751 7.04-31.4 11.95-31.4 17.87 0 0.93451-0.4299 1.9648-0.95533 2.2895-4.6333 2.8636-8.425 21.419-8.4125 41.168 0.0083 12.995 1.0913 17.425 7.7139 31.553 2.3156 4.94 4.9562 11.268 5.868 14.062 0.91177 2.7944 3.5603 9.2632 5.8856 14.375 7.4392 16.354 4.7865 25.536-2.952 10.218-3.4533-6.8354-5.8889-4.747-3.5125 3.0119 8.9845 29.334 40.585 59.777 71.365 68.751 15.241 4.4434 27.035 9.107 35.156 13.901 8.8046 5.1978 4.6861 10.044-5.5668 6.5509-6.349-2.1633-6.9621-0.85478-2.8392 6.0594 6.1136 10.252 7.3706 11.823 20.385 25.469 6.9794 7.3185 15.577 16.514 19.105 20.435 20.559 22.843 46.513 39.141 69.967 43.936 10.549 2.157 12.855 3.1588 12.855 5.5854 0 3.4233-7.8255 3.2503-23.741-0.52488-9.388-2.2268-10.917 2.5238-3.5794 11.124 1.878 2.2013 4.8726 5.9004 6.6547 8.2202 8.0075 10.424 13.687 15.85 27.697 26.461 10.111 7.6577 16.833 12.047 20.625 13.466 3.0938 1.158 9.2109 3.437 13.594 5.0645 9.9355 3.6892 36.225 10.317 40.983 10.332 1.9517 0.007 5.8688 0.63393 8.7048 1.3951 2.8359 0.76119 7.4766 1.4311 10.312 1.4886 2.8359 0.0576 6.2109 0.46937 7.5 0.91524 2.3406 0.80956 7.9138 0.62629 30-0.98655zm-7.5-48.786c-16.094-1.386-23.829-3.6462-21.262-6.213 1.7509-1.751 29.15 1.1996 34.249 3.6882 6.6844 3.2624 3.2743 3.9253-12.987 2.5249zm4.69-20.74c-6.0751-1.8048-9.3313-1.8597-32.726-0.55188-4.7651 0.26638-5.9991-1.2741-2.7226-3.3988 7.9714-5.1692 25.919-5.1628 37.453 0.0133 11.345 5.0915 10.102 7.534-2.0043 3.9374zm-5.0642-17.715c-8.715-3.0163-16.288-5.9263-16.828-6.4668-0.54044-0.54044-2.9022-0.98908-5.2482-0.99697-5.0816-0.0171-7.6102-1.2348-5.9699-2.8751 3.0412-3.0412 36.405 6.2233 43.423 12.058 5.1922 4.3166 0.5684 3.7996-15.377-1.719zm-92.904 1.8319c-17.425-1.2946-29.684-2.8548-36.947-4.702-3.8208-0.97175-7.6176-1.7692-8.4375-1.772-0.81986-0.003-3.1233-0.45854-5.1187-1.0126-6.7058-1.862-2.0932-2.4909 10.659-1.4534 6.9609 0.56632 23.472 1.0376 36.692 1.0473l24.035 0.0176 9.246-4.6875c15.404-7.8093 31.096-26.916 32.913-40.074 0.73521-5.324 6.3048-10.349 8.154-7.3572 0.91269 1.4768-1.1749 17.768-2.623 20.47-0.76239 1.4224-3.7379 7.5054-6.6123 13.518-6.6226 13.853-10.525 17.667-22.124 21.625-16.26 5.549-19.426 5.8971-39.836 4.3806zm75.506-24.705c-1.681-2.0255-0.38904-4.7651 3.819-8.098 2.0649-1.6354 5.321-5.3441 7.2356-8.2415 5.6045-8.481 10.671-6.7852 6.1073 2.0442-5.8249 11.27-14.013 18.09-17.162 14.295zm15.426-63.335c-0.65176-1.0546-1.2635-46.657-0.65074-48.506 3.0558-9.2238 6.3252 17.523 3.7421 30.614-0.51083 2.5888-0.43848 5.9418 0.19393 8.9881 1.3409 6.4593-0.95335 12.678-3.2853 8.9049zm-345.01-156.77c-0.22391-0.64453-1.3224-3.669-2.441-6.721-6.3864-17.424-8.4508-45.157-3.3069-44.423 1.8813 0.26836 1.9965 0.81967 2.0197 9.6596 0.01714 6.537 0.66428 11.929 2.1377 17.812 5.2329 20.894 5.7787 24.844 3.4333 24.844-0.78962 0-1.6189-0.52734-1.8428-1.1719zm89.06-27.442c-16.675-3.3239-20.23-4.4116-21.844-6.682-0.87636-1.233-3.5251-4.7026-5.8861-7.7103-6.1655-7.8543-8.4733-17.694-3.9455-16.822 0.88618 0.17066 2.2456 1.5729 3.0209 3.1162 9.6046 19.117 13.121 21.048 39.241 21.551 13.098 0.25221 13.898 0.42594 12.98 2.8188-1.5041 3.9197-13.269 5.781-23.566 3.7283zm28.912-10.346c-0.30803-0.80273-0.15485-3.9757 0.34042-7.051 0.58038-3.6038 0.57173-9.5003-0.0244-16.587-1.3682-16.267-1.336-18.496 0.2669-18.496 4.9145 0 8.9416 34 4.8025 40.547-2.0603 3.2586-4.4714 3.9692-5.3854 1.5874zm-60.537-33c-2.0672-9.429 40.326-32.897 43.673-24.176 0.85645 2.2319-1.6033 3.8803-11.332 7.594-9.9064 3.7816-23.434 12.056-25.925 15.857-1.8266 2.7878-5.8641 3.2439-6.4163 0.72478zm429 179.47c2.3191-1.5195 7.8275-8.212 12.783-15.53 1.2891-1.9038 3.8727-5.5545 5.7414-8.1126s5.1228-8.237 7.2313-12.62c2.1085-4.3828 6.9385-12.914 10.733-18.958 9.0053-14.343 28.306-52.94 30.368-60.729 2.4026-9.0761 1.5786-26.455-1.7735-37.405-0.53643-1.7522-1.3235-5.5491-1.7491-8.4375-2.9617-20.101-3.579-24.895-3.4912-27.117 0.77402-19.587-4.6807-37.938-13.282-44.682-1.3048-1.0231-4.2708-3.5845-6.5911-5.6919-4.6705-4.242-19.668-9.6669-32.224-11.656-3.5434-0.56134-8.9096-2.059-11.925-3.3281-3.0153-1.2691-6.5707-2.3075-7.9009-2.3075-3.7796 0-7.6138-2.4557-10.614-6.7981-14.83-21.462-42.54-35.604-58.08-29.626-6.48 2.491-12.66 2.687-25.34 0.803-6.89-1.024-13.98-1.862-15.76-1.862-3.909 0-7.8626-1.9099-13.342-6.4449-2.2585-1.8694-5.9136-4.8754-8.1224-6.6801s-9.0586-7.7651-15.222-13.245c-15.458-13.745-36.434-19.302-48.487-12.845-1.5469 0.82868-5.5547 1.9643-8.9062 2.5235-3.3516 0.55926-10.945 2.1369-16.875 3.506-18.024 4.1613-24.439 3.5704-34.43-3.1717-28.387-19.154-29.184-19.63-37.398-22.321-16.918-5.5421-23.963-4.1474-42.912 8.4943-7.2758 4.8542-16.815 10.332-21.198 12.173-30.306 12.728-38.084 23.791-32.31 45.959 3.9714 15.247 8.8171 18.56 5.8311 3.986-2.0282-9.8989-1.1166-13.978 4.4626-19.969 7.2368-7.7711 11.798-4.3346 5.0577 3.8104-3.7482 4.529-3.8511 4.8327-3.1761 9.375 0.38363 2.5819 0.82104 14.187 0.97202 25.788 0.55792 42.872-0.79078 40.709 27.814 44.603 6.6877 0.91048 11.844 4.7673 18.863 14.11 6.7712 9.0124 7.8226 11.368 10.927 24.485 5.6914 24.045 4.5504 30.998-8.7832 53.52-5.4344 9.1795-7.9954 12.083-19.222 21.796l-3.8813 3.3578 1.8609 5.4088c9.003 26.168 57.285 29.918 75.394 5.8572 8.6608-11.507 14.404-43.283 9.3122-51.521-0.3148-0.50937-0.91585-5.6166-1.3357-11.35-0.41981-5.7329-1.2131-15.908-1.7629-22.611-0.59662-7.2739-0.70828-16.912-0.27695-23.906 0.39747-6.4453 0.6263-12.984 0.50848-14.531-0.33639-4.4171 2.4253-26.035 4.9508-38.752 4.483-22.576 4.3103-24.859-3.2206-42.552-6.9428-16.312-2.6878-33.803 4.6811-19.242 3.6064 7.126 5.5567 9.3351 7.7544 8.7835 6.6282-1.6636 5.5344 24.67-2.6433 63.638-1.1528 5.4932-1.231 10.687-0.47997 31.875 0.49346 13.922 1.0808 30.797 1.3051 37.5 0.22437 6.7031 0.88951 15.773 1.4781 20.156 1.242 9.2477 0.51174 29.5-1.369 37.969-3.544 15.958-3.7487 18.792-1.7064 23.615 1.0501 2.4803 2.616 8.0955 3.4797 12.478 4.8338 24.528 21.887 35.065 58.065 35.878 11.81 0.26539 28.365-9.4394 32.864-19.266 4.5702-9.9809 7.1009-16.464 7.6282-19.542 0.29812-1.7402 1.1794-5.8719 1.9584-9.1816 1.1485-4.8793 1.4192-13.747 1.431-46.875 0.0108-30.193 0.33906-42.448 1.2576-46.951 0.68364-3.3516 1.5103-10.945 1.837-16.875 0.40561-7.3619 1.2765-12.863 2.7459-17.344 1.1836-3.6094 2.6297-9.3047 3.2136-12.656 0.58392-3.3516 1.6947-8.8359 2.4683-12.188 1.6876-7.311 1.8953-12.074 0.96082-22.031-1.2894-13.739 4.0441-15.962 7.8931-3.2905 1.4787 4.8682 2.7036 7.0318 4.9973 8.827 3.5159 2.7517 3.7964 6.424 1.188 15.557-3.909 13.688-6.1446 23.749-7.0827 31.875-1.2597 10.912-2.2548 19.883-4.1315 37.249-0.79308 7.3386-2.5335 19.995-3.8677 28.125-1.7454 10.636-2.3841 17.806-2.2772 25.563 0.26051 18.91-1.6192 43.388-3.7982 49.461-4.2672 11.893-4.1585 10.89-1.975 18.239 2.7574 9.2814 6.0677 17.233 8.1163 19.497 4.7083 5.2026 30.879 16.626 41.863 18.273 17.032 2.5542 39.229-14.739 39.711-30.939 0.0989-3.3235 1.3722-9.3589 3.112-14.751 2.5221-7.8162 5.8268-23.759 8.6023-41.499 0.40335-2.5781 2.203-9.5391 3.9992-15.469 1.7962-5.9297 3.7849-14.578 4.4194-19.219 0.63446-4.6406 2.3046-11.812 3.7115-15.938 4.5858-13.446 5.9931-23.323 5.1757-36.325-2.2407-35.644-0.84657-49.379 5.0996-50.239 3.7651-0.54437 4.2919 1.1016 4.3915 13.72 0.0691 8.752 0.60808 13.893 2.0345 19.406 4.7941 18.529 4.7563 19.265-2.143 41.719-2.9205 9.5048-4.6188 16.559-7.9438 32.993-0.48951 2.4196-2.331 8.1149-4.0921 12.656-1.7612 4.5414-4.1057 12.476-5.2101 17.632-1.1044 5.1562-2.8011 12.539-3.7704 16.406-0.96935 3.8672-2.0363 9.1406-2.371 11.719-0.33469 2.5781-1.4645 9.9609-2.5106 16.406-4.3648 26.891 3.7614 46.727 22.163 54.098 15.662 6.2746 28.552 7.6645 34.561 3.7269zm-328.49-109.31c-7.7206-1.5128-7.9594-4.7602-0.34997-4.7602 9.452 0 27.928-1.9198 33.459-3.4767 5.7581-1.6208 8.0518-0.93992 6.9045 2.0497-1.8351 4.7821-27.182 8.7014-40.013 6.1871zm240.03-19.43c-18.907-2.8396-41.25-10.924-41.25-14.925 0-1.8969 1.8634-1.6836 9.1056 1.0424 14.823 5.5795 24.14 7.3436 39.097 7.4032 9.0758 0.0362 14.102 0.40879 14.32 1.0617 0.65852 1.9726-3.1074 4.0527-9.0964 5.0244-6.1035 0.99023-7.8314 1.0461-12.176 0.39359zm-124.22-21.94c-16.131-2.6595-26.63-6.3136-33.984-11.828-4.8467-3.6338-3.4899-6.9895 1.4321-3.542 4.1829 2.9298 15.628 6.997 23.522 8.3589 4.451 0.76791 12.522 2.2231 17.937 3.2338 5.4141 1.0106 11.317 1.9678 13.117 2.1271 2.2551 0.19946 3.3722 0.81013 3.5907 1.9629 0.40962 2.1616-11.487 2.0162-25.614-0.31302zm131.1-5.0135c-14.272-5.814-14.385-5.8743-14.385-7.6522 0-2.6075 7.2721-0.87196 18.882 4.5063 15.524 7.1914 11.811 9.7891-4.4968 3.1459zm-110.9-9.6156c-2.2952-0.80327-9.2561-3.5468-15.469-6.0967-6.2126-2.5499-13.877-5.6923-17.033-6.983-11.743-4.8034-13.045-10.134-1.4962-6.1244 15.811 5.4892 38.004 14.725 40.14 16.705 4.2116 3.9032 1.2788 5.0966-6.1421 2.4995zm-154.26-90.72c-17.999-3.1428-17.474-5.1885 1.1719-4.571 10.927 0.36185 17.638 0.0856 25.811-1.0624 10.5-1.47 12.86-1.41 12.86 0.34 0 1.7424-6.392 3.3527-18.788 4.7333-4.8774 0.54322-10.134 1.1496-11.681 1.3475-1.5469 0.19793-5.7656-0.15578-9.375-0.78601zm30-15.635c-4.6406-0.94484-10.861-2.2129-13.822-2.8179-6.5004-1.3279-9.4106-3.1428-7.279-4.5394 0.76915-0.50397 2.4566-0.69895 3.75-0.43329s5.0937 1.0871 8.4453 1.8254 8.9353 1.591 12.408 1.8949c6.5121 0.56981 11.006 2.8554 9.7167 4.9419-0.85263 1.3796-2.7894 1.2519-13.219-0.87153z"/>
</svg>
